<svg xmlns="http://www.w3.org/2000/svg" viewBox="0 0 512 512" width="20" height="18"><path d="M494.469 213.589L319.176 37.864c-7.802-7.821-20.465-7.835-28.286-.035-7.82 7.801-7.836 20.465-.035 28.285l175.311 175.744c7.797 7.798 7.797 20.487-.018 28.302L290.855 445.886c-7.8 7.82-7.785 20.484.035 28.285a19.941 19.941 0 0 0 14.126 5.84 19.942 19.942 0 0 0 14.161-5.876l175.275-175.707c23.394-23.395 23.394-61.462.017-84.839z"/><path d="M383.019 235.999H20.001C8.954 235.999 0 244.954 0 256s8.954 20.001 20.001 20.001h363.018c11.047 0 20.001-8.954 20.001-20.001s-8.954-20.001-20.001-20.001z"/></svg>