<svg xmlns="http://www.w3.org/2000/svg" width="22" height="22" viewBox="0 0 512 512"><path d="M405.4 405.4c44.9-44.9 69.6-104.5 69.6-167.9s-24.7-123.1-69.6-167.9C360.6 24.7 300.9 0 237.5 0 174.1 0 114.4 24.7 69.6 69.6 24.7 114.4 0 174.1 0 237.5c0 43.4 11.8 85.9 34.2 122.9 5.3 8.8 16.7 11.6 25.5 6.3S71.3 350 66 341.2c-18.9-31.2-28.9-67-28.9-103.7C37.1 127 127 37.1 237.5 37.1S437.9 127 437.9 237.5 348 437.9 237.5 437.9c-39.5 0-78-11.7-111.2-34-8.5-5.7-20-3.4-25.7 5.1-5.7 8.5-3.4 20 5.1 25.7 39.4 26.3 85 40.2 131.8 40.2 63.4.1 123.1-24.6 167.9-69.5z"/><path d="M506.1 477.9L421.3 393c-7.8-7.8-20.5-7.8-28.3 0-7.8 7.8-7.8 20.5 0 28.3l84.9 84.9c7.8 7.8 20.5 7.8 28.3 0 7.8-7.9 7.8-20.5-.1-28.3z"/></svg>